<?xml version="1.0" encoding="UTF-8" standalone="no"?><svg xmlns="http://www.w3.org/2000/svg" xmlns:xlink="http://www.w3.org/1999/xlink" contentScriptType="application/ecmascript" contentStyleType="text/css" height="1116px" preserveAspectRatio="none" style="width:513px;height:1116px;" version="1.1" viewBox="0 0 513 1116"
    width="513px" zoomAndPan="magnify"><defs><filter height="300%" id="fannmcu" width="300%" x="-1" y="-1"><feGaussianBlur result="blurOut" stdDeviation="2.0"/><feColorMatrix in="blurOut" result="blurOut2" type="matrix" values="0 0 0 0 0 0 0 0 0 0 0 0 0 0 0 0 0 0 .4 0"/><feOffset dx="4.0" dy="4.0" in="blurOut2" result="blurOut3"/><feBlend in="SourceGraphic" in2="blurOut3" mode="normal"/></filter></defs><g><text fill="#000000" font-family="sans-serif" font-size="18" lengthAdjust="spacingAndGlyphs" textLength="157" x="190" y="16.708">Servlet Container</text><ellipse cx="164" cy="38.9531" fill="#000000" filter="url(#fannmcu)" rx="10" ry="10" style="stroke: none; stroke-width: 1.0;"/><rect fill="#FEFECE" filter="url(#fannmcu)" height="33.9688" rx="12.5" ry="12.5" style="stroke: #A80036; stroke-width: 1.5;" width="200" x="64" y="89.9531"/><text fill="#000000" font-family="sans-serif" font-size="12" lengthAdjust="spacingAndGlyphs" textLength="180" x="74" y="111.0918">ClickServlet.handleRequest()</text><rect fill="#FEFECE" filter="url(#fannmcu)" height="33.9688" rx="12.5" ry="12.5" style="stroke: #A80036; stroke-width: 1.5;" width="81" x="123.5" y="164.9531"/><text fill="#000000" font-family="sans-serif" font-size="12" lengthAdjust="spacingAndGlyphs" textLength="61" x="133.5" y="186.0918">new Page</text><polygon fill="#FEFECE" filter="url(#fannmcu)" points="164,244.9531,176,256.9531,164,268.9531,152,256.9531,164,244.9531" style="stroke: #A80036; stroke-width: 1.5;"/><rect fill="#FEFECE" filter="url(#fannmcu)" height="33.9688" rx="12.5" ry="12.5" style="stroke: #A80036; stroke-width: 1.5;" width="101" x="224.5" y="239.9531"/><text fill="#000000" font-family="sans-serif" font-size="12" lengthAdjust="spacingAndGlyphs" textLength="81" x="234.5" y="261.0918">Page.onInit()</text><polygon fill="#FEFECE" filter="url(#fannmcu)" points="287,319.9531,299,331.9531,287,343.9531,275,331.9531,287,319.9531" style="stroke: #A80036; stroke-width: 1.5;"/><rect fill="#FEFECE" filter="url(#fannmcu)" height="33.9688" rx="12.5" ry="12.5" style="stroke: #A80036; stroke-width: 1.5;" width="125" x="338.5" y="314.9531"/><text fill="#000000" font-family="sans-serif" font-size="12" lengthAdjust="spacingAndGlyphs" textLength="105" x="348.5" y="336.0918">Process controls</text><polygon fill="#FEFECE" filter="url(#fannmcu)" points="401,389.9531,413,401.9531,401,413.9531,389,401.9531,401,389.9531" style="stroke: #A80036; stroke-width: 1.5;"/><rect fill="#000000" filter="url(#fannmcu)" height="8" style="stroke: none; stroke-width: 1.0;" width="80" x="299" y="470.9531"/><rect fill="#000000" filter="url(#fannmcu)" height="8" style="stroke: none; stroke-width: 1.0;" width="80" x="270" y="766.9531"/><polygon fill="#FEFECE" filter="url(#fannmcu)" points="339,535.9531,351,547.9531,339,559.9531,327,547.9531,339,535.9531" style="stroke: #A80036; stroke-width: 1.5;"/><rect fill="#FEFECE" filter="url(#fannmcu)" height="33.9688" rx="12.5" ry="12.5" style="stroke: #A80036; stroke-width: 1.5;" width="110" x="193" y="616.9531"/><text fill="#000000" font-family="sans-serif" font-size="12" lengthAdjust="spacingAndGlyphs" textLength="90" x="203" y="638.0918">Page.onPost()</text><rect fill="#FEFECE" filter="url(#fannmcu)" height="33.9688" rx="12.5" ry="12.5" style="stroke: #A80036; stroke-width: 1.5;" width="127" x="246.5" y="691.9531"/><text fill="#000000" font-family="sans-serif" font-size="12" lengthAdjust="spacingAndGlyphs" textLength="107" x="256.5" y="713.0918">Page.onRender()</text><rect fill="#FEFECE" filter="url(#fannmcu)" height="33.9688" rx="12.5" ry="12.5" style="stroke: #A80036; stroke-width: 1.5;" width="104" x="323" y="616.9531"/><text fill="#000000" font-family="sans-serif" font-size="12" lengthAdjust="spacingAndGlyphs" textLength="84" x="333" y="638.0918">Page.onGet()</text><polygon fill="#FEFECE" filter="url(#fannmcu)" points="310,820.9531,322,832.9531,310,844.9531,298,832.9531,310,820.9531" style="stroke: #A80036; stroke-width: 1.5;"/><rect fill="#FEFECE" filter="url(#fannmcu)" height="33.9688" rx="12.5" ry="12.5" style="stroke: #A80036; stroke-width: 1.5;" width="122" x="382" y="815.9531"/><text fill="#000000" font-family="sans-serif" font-size="12" lengthAdjust="spacingAndGlyphs" textLength="102" x="392" y="837.0918">redirect request</text><rect fill="#000000" filter="url(#fannmcu)" height="8" style="stroke: none; stroke-width: 1.0;" width="80" x="323" y="965.9531"/><polygon fill="#FEFECE" filter="url(#fannmcu)" points="231,895.9531,243,907.9531,231,919.9531,219,907.9531,231,895.9531" style="stroke: #A80036; stroke-width: 1.5;"/><rect fill="#FEFECE" filter="url(#fannmcu)" height="33.9688" rx="12.5" ry="12.5" style="stroke: #A80036; stroke-width: 1.5;" width="123" x="52.5" y="890.9531"/><text fill="#000000" font-family="sans-serif" font-size="12" lengthAdjust="spacingAndGlyphs" textLength="103" x="62.5" y="912.0918">Forward request</text><rect fill="#FEFECE" filter="url(#fannmcu)" height="33.9688" rx="12.5" ry="12.5" style="stroke: #A80036; stroke-width: 1.5;" width="161" x="282.5" y="890.9531"/><text fill="#000000" font-family="sans-serif" font-size="12" lengthAdjust="spacingAndGlyphs" textLength="141" x="292.5" y="912.0918">Render page template</text><rect fill="#FEFECE" filter="url(#fannmcu)" height="33.9688" rx="12.5" ry="12.5" style="stroke: #A80036; stroke-width: 1.5;" width="130" x="298" y="1014.9531"/><text fill="#000000" font-family="sans-serif" font-size="12" lengthAdjust="spacingAndGlyphs" textLength="110" x="308" y="1036.0918">Page.onDestroy()</text><ellipse cx="363" cy="1099.9531" fill="none" filter="url(#fannmcu)" rx="10" ry="10" style="stroke: #000000; stroke-width: 1.0;"/><ellipse cx="363.5" cy="1100.4531" fill="#000000" rx="6" ry="6" style="stroke: none; stroke-width: 1.0;"/><path d="M164,49.1331 C164,58.2231 164,72.4831 164,84.4431 " fill="none" style="stroke: #A80036; stroke-width: 1.0;"/><polygon fill="#A80036" points="164,89.7431,168,80.7431,164,84.7431,160,80.7431,164,89.7431" style="stroke: #A80036; stroke-width: 1.0;"/><path d="M164,124.1541 C164,134.6451 164,148.4161 164,159.7711 " fill="none" style="stroke: #A80036; stroke-width: 1.0;"/><polygon fill="#A80036" points="164,164.7971,168,155.7971,164,159.7971,160,155.7971,164,164.7971" style="stroke: #A80036; stroke-width: 1.0;"/><path d="M164,199.1541 C164,211.1021 164,227.3041 164,239.3471 " fill="none" style="stroke: #A80036; stroke-width: 1.0;"/><polygon fill="#A80036" points="164,244.5571,168,235.5571,164,239.5571,160,235.5571,164,244.5571" style="stroke: #A80036; stroke-width: 1.0;"/><text fill="#000000" font-family="sans-serif" font-size="13" lengthAdjust="spacingAndGlyphs" textLength="143" x="0.8906" y="236.0469">Page.onSecurityCheck</text><path d="M176.303,256.9531 C186.943,256.9531 203.126,256.9531 219.329,256.9531 " fill="none" style="stroke: #A80036; stroke-width: 1.0;"/><polygon fill="#A80036" points="224.352,256.9531,215.352,252.9531,219.352,256.9531,215.352,260.9531,224.352,256.9531" style="stroke: #A80036; stroke-width: 1.0;"/><text fill="#000000" font-family="sans-serif" font-size="13" lengthAdjust="spacingAndGlyphs" textLength="26" x="187.25" y="250.02">true</text><path d="M277.663,274.1541 C279.723,286.6851 282.552,303.8951 284.555,316.0781 " fill="none" style="stroke: #A80036; stroke-width: 1.0;"/><polygon fill="#A80036" points="285.411,321.2871,287.8976,311.7573,284.5997,316.3534,280.0036,313.0555,285.411,321.2871" style="stroke: #A80036; stroke-width: 1.0;"/><text fill="#000000" font-family="sans-serif" font-size="13" lengthAdjust="spacingAndGlyphs" textLength="67" x="200.4279" y="309.078">isForward?</text><path d="M299.2,331.9531 C307.82,331.9531 320.134,331.9531 333.235,331.9531 " fill="none" style="stroke: #A80036; stroke-width: 1.0;"/><polygon fill="#A80036" points="338.486,331.9531,329.486,327.9531,333.486,331.9531,329.486,335.9531,338.486,331.9531" style="stroke: #A80036; stroke-width: 1.0;"/><text fill="#000000" font-family="sans-serif" font-size="13" lengthAdjust="spacingAndGlyphs" textLength="16" x="310.75" y="325.02">no</text><path d="M401,349.0681 C401,359.8691 401,374.0351 401,384.8361 " fill="none" style="stroke: #A80036; stroke-width: 1.0;"/><polygon fill="#A80036" points="401,389.8381,405,380.8381,401,384.8381,397,380.8381,401,389.8381" style="stroke: #A80036; stroke-width: 1.0;"/><text fill="#000000" font-family="sans-serif" font-size="13" lengthAdjust="spacingAndGlyphs" textLength="135" x="246.1719" y="381.1626">continue processing?</text><path d="M395.714,409.0061 C384.348,422.0221 357.624,452.6261 345.357,466.6731 " fill="none" style="stroke: #A80036; stroke-width: 1.0;"/><polygon fill="#A80036" points="341.795,470.7531,350.728,466.6056,345.084,466.9871,344.7024,461.3432,341.795,470.7531" style="stroke: #A80036; stroke-width: 1.0;"/><text fill="#000000" font-family="sans-serif" font-size="13" lengthAdjust="spacingAndGlyphs" textLength="22" x="374" y="447.02">yes</text><path d="M407.989,407.1211 C423.21,416.7871 458,442.3391 458,473.9531 C458,473.9531 458,473.9531 458,709.9531 C458,754.8461 398.793,766.9531 355.275,769.7881 " fill="none" style="stroke: #A80036; stroke-width: 1.0;"/><polygon fill="#A80036" points="350.051,770.0901,359.2658,773.5668,355.0428,769.803,358.8065,765.58,350.051,770.0901" style="stroke: #A80036; stroke-width: 1.0;"/><text fill="#000000" font-family="sans-serif" font-size="13" lengthAdjust="spacingAndGlyphs" textLength="16" x="459" y="593.02">no</text><path d="M290.097,341.3511 C299.366,366.4851 326.813,440.9071 335.98,465.7651 " fill="none" style="stroke: #A80036; stroke-width: 1.0;"/><polygon fill="#A80036" points="337.731,470.5111,338.3701,460.683,336.0011,465.8199,330.8642,463.4509,337.731,470.5111" style="stroke: #A80036; stroke-width: 1.0;"/><text fill="#000000" font-family="sans-serif" font-size="13" lengthAdjust="spacingAndGlyphs" textLength="22" x="317" y="406.52">yes</text><path d="M339,479.0041 C339,487.8081 339,513.7221 339,530.8821 " fill="none" style="stroke: #A80036; stroke-width: 1.0;"/><polygon fill="#A80036" points="339,535.8981,343,526.8981,339,530.8981,335,526.8981,339,535.8981" style="stroke: #A80036; stroke-width: 1.0;"/><text fill="#000000" font-family="sans-serif" font-size="13" lengthAdjust="spacingAndGlyphs" textLength="49" x="279.8938" y="524.926">is Post?</text><path d="M333.029,554.4641 C320.299,566.2161 289.956,594.2251 269.185,613.3971 " fill="none" style="stroke: #A80036; stroke-width: 1.0;"/><polygon fill="#A80036" points="265.425,616.8691,274.7515,613.7041,269.0991,613.4778,269.3254,607.8255,265.425,616.8691" style="stroke: #A80036; stroke-width: 1.0;"/><text fill="#000000" font-family="sans-serif" font-size="13" lengthAdjust="spacingAndGlyphs" textLength="22" x="305" y="593.02">yes</text><path d="M261.76,651.1541 C270.91,661.9281 283,676.1621 292.787,687.6861 " fill="none" style="stroke: #A80036; stroke-width: 1.0;"/><polygon fill="#A80036" points="296.279,691.7971,293.5016,682.348,293.0423,687.9862,287.4041,687.5268,296.279,691.7971" style="stroke: #A80036; stroke-width: 1.0;"/><path d="M310,726.0321 C310,737.4221 310,752.2521 310,761.4351 " fill="none" style="stroke: #A80036; stroke-width: 1.0;"/><polygon fill="#A80036" points="310,766.5611,314,757.5611,310,761.5611,306,757.5611,310,766.5611" style="stroke: #A80036; stroke-width: 1.0;"/><path d="M342.322,556.7051 C347.636,569.1051 358.232,593.8271 365.921,611.7681 " fill="none" style="stroke: #A80036; stroke-width: 1.0;"/><polygon fill="#A80036" points="368.005,616.6321,368.1356,606.7841,366.0351,612.0365,360.7826,609.936,368.005,616.6321" style="stroke: #A80036; stroke-width: 1.0;"/><text fill="#000000" font-family="sans-serif" font-size="13" lengthAdjust="spacingAndGlyphs" textLength="16" x="360" y="593.02">no</text><path d="M360.574,651.1541 C350.897,662.0231 338.084,676.4121 327.777,687.9881 " fill="none" style="stroke: #A80036; stroke-width: 1.0;"/><polygon fill="#A80036" points="324.385,691.7971,333.3578,687.7364,327.7104,688.0632,327.3835,682.4158,324.385,691.7971" style="stroke: #A80036; stroke-width: 1.0;"/><path d="M163.516,268.8341 C162.924,283.0961 162,308.8931 162,330.9531 C162,330.9531 162,330.9531 162,709.9531 C162,754.8461 221.207,766.9531 264.725,769.7881 " fill="none" style="stroke: #A80036; stroke-width: 1.0;"/><polygon fill="#A80036" points="269.949,770.0901,261.1935,765.58,264.9572,769.803,260.7342,773.5668,269.949,770.0901" style="stroke: #A80036; stroke-width: 1.0;"/><text fill="#000000" font-family="sans-serif" font-size="13" lengthAdjust="spacingAndGlyphs" textLength="30" x="163" y="512.02">false</text><path d="M310,775.1791 C310,782.6571 310,801.6021 310,815.5601 " fill="none" style="stroke: #A80036; stroke-width: 1.0;"/><polygon fill="#A80036" points="310,820.8171,314,811.8171,310,815.8171,306,811.8171,310,820.8171" style="stroke: #A80036; stroke-width: 1.0;"/><text fill="#000000" font-family="sans-serif" font-size="13" lengthAdjust="spacingAndGlyphs" textLength="78" x="215.9125" y="809.8116">Do redirect?</text><path d="M322.274,832.9531 C335.014,832.9531 355.971,832.9531 376.878,832.9531 " fill="none" style="stroke: #A80036; stroke-width: 1.0;"/><polygon fill="#A80036" points="381.901,832.9531,372.901,828.9531,376.901,832.9531,372.901,836.9531,381.901,832.9531" style="stroke: #A80036; stroke-width: 1.0;"/><text fill="#000000" font-family="sans-serif" font-size="13" lengthAdjust="spacingAndGlyphs" textLength="22" x="341" y="826.02">yes</text><path d="M450.757,850.1031 C458.807,869.4261 468.375,902.0351 454,924.9531 C439.325,948.3501 408.3,959.6091 386.575,964.8111 " fill="none" style="stroke: #A80036; stroke-width: 1.0;"/><polygon fill="#A80036" points="381.542,965.9491,391.2026,967.8656,386.4189,964.8463,389.4381,960.0626,381.542,965.9491" style="stroke: #A80036; stroke-width: 1.0;"/><path d="M304.062,839.4401 C290.565,851.9111 257.47,882.4941 240.854,897.8471 " fill="none" style="stroke: #A80036; stroke-width: 1.0;"/><polygon fill="#A80036" points="237.007,901.4021,246.3309,898.2296,240.6784,898.0079,240.9001,892.3554,237.007,901.4021" style="stroke: #A80036; stroke-width: 1.0;"/><text fill="#000000" font-family="sans-serif" font-size="13" lengthAdjust="spacingAndGlyphs" textLength="79" x="184.4777" y="915.962">Do Forward?</text><path d="M180.6,907.9531 C195.329,907.9531 209.36,907.9531 218.86,907.9531 " fill="none" style="stroke: #A80036; stroke-width: 1.0;"/><polygon fill="#A80036" points="175.584,907.9531,184.584,911.9531,180.584,907.9531,184.584,903.9531,175.584,907.9531" style="stroke: #A80036; stroke-width: 1.0;"/><text fill="#000000" font-family="sans-serif" font-size="13" lengthAdjust="spacingAndGlyphs" textLength="22" x="186.25" y="901.02">yes</text><path d="M175.551,923.7841 C231.325,937.2241 309.973,956.1751 344.979,964.6111 " fill="none" style="stroke: #A80036; stroke-width: 1.0;"/><polygon fill="#A80036" points="350.213,965.8721,342.4005,959.8751,345.3521,964.7008,340.5264,967.6525,350.213,965.8721" style="stroke: #A80036; stroke-width: 1.0;"/><path d="M243.182,907.9531 C251.633,907.9531 263.728,907.9531 277.016,907.9531 " fill="none" style="stroke: #A80036; stroke-width: 1.0;"/><polygon fill="#A80036" points="282.365,907.9531,273.365,903.9531,277.365,907.9531,273.365,911.9531,282.365,907.9531" style="stroke: #A80036; stroke-width: 1.0;"/><text fill="#000000" font-family="sans-serif" font-size="13" lengthAdjust="spacingAndGlyphs" textLength="16" x="254.75" y="901.02">no</text><path d="M363,925.0321 C363,936.4221 363,951.2521 363,960.4351 " fill="none" style="stroke: #A80036; stroke-width: 1.0;"/><polygon fill="#A80036" points="363,965.5611,367,956.5611,363,960.5611,359,956.5611,363,965.5611" style="stroke: #A80036; stroke-width: 1.0;"/><path d="M363,974.1791 C363,980.8401 363,996.6011 363,1009.8311 " fill="none" style="stroke: #A80036; stroke-width: 1.0;"/><polygon fill="#A80036" points="363,1014.9382,367,1005.9382,363,1009.9382,359,1005.9382,363,1014.9382" style="stroke: #A80036; stroke-width: 1.0;"/><path d="M363,1049.2677 C363,1060.1899 363,1074.4214 363,1084.8524 " fill="none" style="stroke: #A80036; stroke-width: 1.0;"/><polygon fill="#A80036" points="363,1089.9231,367,1080.9231,363,1084.9231,359,1080.9231,363,1089.9231" style="stroke: #A80036; stroke-width: 1.0;"/></g></svg>