<?xml version="1.0" encoding="UTF-8" standalone="no"?><svg xmlns="http://www.w3.org/2000/svg" xmlns:xlink="http://www.w3.org/1999/xlink" contentScriptType="application/ecmascript" contentStyleType="text/css" height="1130px" preserveAspectRatio="none" style="width:726px;height:1130px;" version="1.1" viewBox="0 0 726 1130"
    width="726px" zoomAndPan="magnify"><defs><filter height="300%" id="f6nj439" width="300%" x="-1" y="-1"><feGaussianBlur result="blurOut" stdDeviation="2.0"/><feColorMatrix in="blurOut" result="blurOut2" type="matrix" values="0 0 0 0 0 0 0 0 0 0 0 0 0 0 0 0 0 0 .4 0"/><feOffset dx="4.0" dy="4.0" in="blurOut2" result="blurOut3"/><feBlend in="SourceGraphic" in2="blurOut3" mode="normal"/></filter></defs><g><text fill="#000000" font-family="sans-serif" font-size="18" lengthAdjust="spacingAndGlyphs" textLength="123" x="313.5" y="18.6855">Friend Request</text><ellipse cx="205" cy="40.6406" fill="#000000" filter="url(#f6nj439)" rx="10" ry="10" style="stroke: none; stroke-width: 1.0;"/><rect fill="#FEFECE" filter="url(#f6nj439)" height="35.0938" rx="12.5" ry="12.5" style="stroke: #A80036; stroke-width: 1.5;" width="81" x="164.5" y="91.6406"/><text fill="#000000" font-family="sans-serif" font-size="12" lengthAdjust="spacingAndGlyphs" textLength="61" x="174.5" y="114.0977">Visit Profile</text><rect fill="#FEFECE" filter="url(#f6nj439)" height="35.0938" rx="12.5" ry="12.5" style="stroke: #A80036; stroke-width: 1.5;" width="128" x="141" y="167.6406"/><text fill="#000000" font-family="sans-serif" font-size="12" lengthAdjust="spacingAndGlyphs" textLength="108" x="151" y="190.0977">Click On Add Friend</text><polygon fill="#FEFECE" filter="url(#f6nj439)" points="205,249.1406,217,261.1406,205,273.1406,193,261.1406,205,249.1406" style="stroke: #A80036; stroke-width: 1.5;"/><rect fill="#FEFECE" filter="url(#f6nj439)" height="35.0938" rx="12.5" ry="12.5" style="stroke: #A80036; stroke-width: 1.5;" width="188" x="278" y="243.6406"/><text fill="#000000" font-family="sans-serif" font-size="12" lengthAdjust="spacingAndGlyphs" textLength="168" x="288" y="266.0977">Insert username to friend array</text><polygon fill="#FEFECE" filter="url(#f6nj439)" points="372,325.1406,384,337.1406,372,349.1406,360,337.1406,372,325.1406" style="stroke: #A80036; stroke-width: 1.5;"/><rect fill="#FEFECE" filter="url(#f6nj439)" height="35.0938" rx="12.5" ry="12.5" style="stroke: #A80036; stroke-width: 1.5;" width="290" x="427" y="319.6406"/><text fill="#000000" font-family="sans-serif" font-size="12" lengthAdjust="spacingAndGlyphs" textLength="270" x="437" y="342.0977">Adds a single comma with a space as a delimiter</text><polygon fill="#FEFECE" filter="url(#f6nj439)" points="480,395.6406,492,407.6406,480,419.6406,468,407.6406,480,395.6406" style="stroke: #A80036; stroke-width: 1.5;"/><rect fill="#000000" filter="url(#f6nj439)" height="8" style="stroke: none; stroke-width: 1.0;" width="80" x="351" y="477.6406"/><rect fill="#000000" filter="url(#f6nj439)" height="8" style="stroke: none; stroke-width: 1.0;" width="80" x="302" y="777.6406"/><polygon fill="#FEFECE" filter="url(#f6nj439)" points="391,543.6406,403,555.6406,391,567.6406,379,555.6406,391,543.6406" style="stroke: #A80036; stroke-width: 1.5;"/><rect fill="#FEFECE" filter="url(#f6nj439)" height="35.0938" rx="12.5" ry="12.5" style="stroke: #A80036; stroke-width: 1.5;" width="99" x="236.5" y="625.6406"/><text fill="#000000" font-family="sans-serif" font-size="12" lengthAdjust="spacingAndGlyphs" textLength="79" x="246.5" y="648.0977">Page.onPost()</text><rect fill="#FEFECE" filter="url(#f6nj439)" height="35.0938" rx="12.5" ry="12.5" style="stroke: #A80036; stroke-width: 1.5;" width="115" x="284.5" y="701.6406"/><text fill="#000000" font-family="sans-serif" font-size="12" lengthAdjust="spacingAndGlyphs" textLength="95" x="294.5" y="724.0977">Page.onRender()</text><rect fill="#FEFECE" filter="url(#f6nj439)" height="35.0938" rx="12.5" ry="12.5" style="stroke: #A80036; stroke-width: 1.5;" width="93" x="355.5" y="625.6406"/><text fill="#000000" font-family="sans-serif" font-size="12" lengthAdjust="spacingAndGlyphs" textLength="73" x="365.5" y="648.0977">Page.onGet()</text><polygon fill="#FEFECE" filter="url(#f6nj439)" points="342,832.1406,354,844.1406,342,856.1406,330,844.1406,342,832.1406" style="stroke: #A80036; stroke-width: 1.5;"/><rect fill="#FEFECE" filter="url(#f6nj439)" height="35.0938" rx="12.5" ry="12.5" style="stroke: #A80036; stroke-width: 1.5;" width="106" x="412" y="826.6406"/><text fill="#000000" font-family="sans-serif" font-size="12" lengthAdjust="spacingAndGlyphs" textLength="86" x="422" y="849.0977">redirect request</text><rect fill="#000000" filter="url(#f6nj439)" height="8" style="stroke: none; stroke-width: 1.0;" width="80" x="351" y="978.6406"/><polygon fill="#FEFECE" filter="url(#f6nj439)" points="268,908.1406,280,920.1406,268,932.1406,256,920.1406,268,908.1406" style="stroke: #A80036; stroke-width: 1.5;"/><rect fill="#FEFECE" filter="url(#f6nj439)" height="35.0938" rx="12.5" ry="12.5" style="stroke: #A80036; stroke-width: 1.5;" width="110" x="103" y="902.6406"/><text fill="#000000" font-family="sans-serif" font-size="12" lengthAdjust="spacingAndGlyphs" textLength="90" x="113" y="925.0977">Forward request</text><rect fill="#FEFECE" filter="url(#f6nj439)" height="35.0938" rx="12.5" ry="12.5" style="stroke: #A80036; stroke-width: 1.5;" width="143" x="319.5" y="902.6406"/><text fill="#000000" font-family="sans-serif" font-size="12" lengthAdjust="spacingAndGlyphs" textLength="123" x="329.5" y="925.0977">Render page template</text><rect fill="#FEFECE" filter="url(#f6nj439)" height="35.0938" rx="12.5" ry="12.5" style="stroke: #A80036; stroke-width: 1.5;" width="116" x="333" y="1027.6406"/><text fill="#000000" font-family="sans-serif" font-size="12" lengthAdjust="spacingAndGlyphs" textLength="96" x="343" y="1050.0977">Page.onDestroy()</text><ellipse cx="391" cy="1113.6406" fill="none" filter="url(#f6nj439)" rx="10" ry="10" style="stroke: #000000; stroke-width: 1.0;"/><ellipse cx="391.5" cy="1114.1406" fill="#000000" rx="6" ry="6" style="stroke: none; stroke-width: 1.0;"/><path d="M205,50.8906 C205,60.0706 205,74.4806 205,86.5406 " fill="none" style="stroke: #A80036; stroke-width: 1.0;"/><polygon fill="#A80036" points="205,91.5506,209,82.5506,205,86.5506,201,82.5506,205,91.5506" style="stroke: #A80036; stroke-width: 1.0;"/><path d="M205,126.9326 C205,137.4346 205,151.0696 205,162.3946 " fill="none" style="stroke: #A80036; stroke-width: 1.0;"/><polygon fill="#A80036" points="205,167.4156,209,158.4156,205,162.4156,201,158.4156,205,167.4156" style="stroke: #A80036; stroke-width: 1.0;"/><path d="M205,202.9326 C205,215.0616 205,231.3706 205,243.4716 " fill="none" style="stroke: #A80036; stroke-width: 1.0;"/><polygon fill="#A80036" points="205,248.7046,209,239.7046,205,243.7046,201,239.7046,205,248.7046" style="stroke: #A80036; stroke-width: 1.0;"/><text fill="#000000" font-family="sans-serif" font-size="13" lengthAdjust="spacingAndGlyphs" textLength="184" x="0.875" y="241.7678">profile owner treat friend request</text><path d="M217.01,261.1406 C229.526,261.1406 250.417,261.1406 272.872,261.1406 " fill="none" style="stroke: #A80036; stroke-width: 1.0;"/><polygon fill="#A80036" points="277.991,261.1406,268.991,257.1406,272.991,261.1406,268.991,265.1406,277.991,261.1406" style="stroke: #A80036; stroke-width: 1.0;"/><text fill="#000000" font-family="sans-serif" font-size="13" lengthAdjust="spacingAndGlyphs" textLength="39" x="228" y="254.6357">accept</text><path d="M372,278.9326 C372,291.0616 372,307.3706 372,319.4716 " fill="none" style="stroke: #A80036; stroke-width: 1.0;"/><polygon fill="#A80036" points="372,324.7046,376,315.7046,372,319.7046,368,315.7046,372,324.7046" style="stroke: #A80036; stroke-width: 1.0;"/><text fill="#000000" font-family="sans-serif" font-size="13" lengthAdjust="spacingAndGlyphs" textLength="43" x="320.5344" y="314.2223">isFirst?</text><path d="M384.21,337.1406 C393.125,337.1406 406.295,337.1406 421.597,337.1406 " fill="none" style="stroke: #A80036; stroke-width: 1.0;"/><polygon fill="#A80036" points="426.865,337.1406,417.865,333.1406,421.865,337.1406,417.865,341.1406,426.865,337.1406" style="stroke: #A80036; stroke-width: 1.0;"/><text fill="#000000" font-family="sans-serif" font-size="13" lengthAdjust="spacingAndGlyphs" textLength="21" x="395" y="330.6357">yes</text><path d="M549.729,354.7226 C531.03,368.6456 505.127,387.9316 490.735,398.6476 " fill="none" style="stroke: #A80036; stroke-width: 1.0;"/><polygon fill="#A80036" points="486.658,401.6836,496.2651,399.5149,490.6677,398.6967,491.486,393.0993,486.658,401.6836" style="stroke: #A80036; stroke-width: 1.0;"/><text fill="#000000" font-family="sans-serif" font-size="13" lengthAdjust="spacingAndGlyphs" textLength="123" x="500.0766" y="396.4656">continue processing?</text><path d="M473.883,413.5896 C458.231,426.2516 416.729,459.8266 399.102,474.0866 " fill="none" style="stroke: #A80036; stroke-width: 1.0;"/><polygon fill="#A80036" points="394.805,477.5626,404.3174,475.0103,398.6917,474.4173,399.2848,468.7916,394.805,477.5626" style="stroke: #A80036; stroke-width: 1.0;"/><text fill="#000000" font-family="sans-serif" font-size="13" lengthAdjust="spacingAndGlyphs" textLength="14" x="441" y="454.1357">no</text><path d="M480,419.8646 C480,434.0296 480,459.1406 480,480.6406 C480,480.6406 480,480.6406 480,720.1406 C480,761.3236 427.81,774.7346 387.621,778.9566 " fill="none" style="stroke: #A80036; stroke-width: 1.0;"/><polygon fill="#A80036" points="382.286,779.4716,391.6284,782.5892,387.2629,778.9916,390.8605,774.6261,382.286,779.4716" style="stroke: #A80036; stroke-width: 1.0;"/><text fill="#000000" font-family="sans-serif" font-size="13" lengthAdjust="spacingAndGlyphs" textLength="14" x="481" y="602.1357">no</text><path d="M373.306,347.9356 C376.845,374.4806 386.577,447.4696 389.884,472.2676 " fill="none" style="stroke: #A80036; stroke-width: 1.0;"/><polygon fill="#A80036" points="390.548,477.2546,393.3222,467.8046,389.8865,472.2986,385.3925,468.8629,390.548,477.2546" style="stroke: #A80036; stroke-width: 1.0;"/><text fill="#000000" font-family="sans-serif" font-size="13" lengthAdjust="spacingAndGlyphs" textLength="21" x="384" y="413.1357">yes</text><path d="M391,485.7346 C391,494.6626 391,520.9416 391,538.3436 " fill="none" style="stroke: #A80036; stroke-width: 1.0;"/><polygon fill="#A80036" points="391,543.4306,395,534.4306,391,538.4306,387,534.4306,391,543.4306" style="stroke: #A80036; stroke-width: 1.0;"/><text fill="#000000" font-family="sans-serif" font-size="13" lengthAdjust="spacingAndGlyphs" textLength="48" x="333.1" y="532.6616">is Post?</text><path d="M384.746,561.7326 C370.473,573.3556 334.853,602.3596 310.536,622.1606 " fill="none" style="stroke: #A80036; stroke-width: 1.0;"/><polygon fill="#A80036" points="306.436,625.4996,315.9406,622.9185,310.3132,622.3425,310.8892,616.715,306.436,625.4996" style="stroke: #A80036; stroke-width: 1.0;"/><text fill="#000000" font-family="sans-serif" font-size="13" lengthAdjust="spacingAndGlyphs" textLength="21" x="352" y="602.1357">yes</text><path d="M298.707,660.9326 C306.87,671.7186 317.533,685.8096 326.234,697.3076 " fill="none" style="stroke: #A80036; stroke-width: 1.0;"/><polygon fill="#A80036" points="329.343,701.4156,327.1019,691.8251,326.3259,697.4285,320.7225,696.6525,329.343,701.4156" style="stroke: #A80036; stroke-width: 1.0;"/><path d="M342,736.6726 C342,748.1526 342,762.9766 342,772.1436 " fill="none" style="stroke: #A80036; stroke-width: 1.0;"/><polygon fill="#A80036" points="342,777.2586,346,768.2586,342,772.2586,338,768.2586,342,777.2586" style="stroke: #A80036; stroke-width: 1.0;"/><path d="M392.262,566.4486 C393.939,579.4866 396.951,602.8986 399.183,620.2436 " fill="none" style="stroke: #A80036; stroke-width: 1.0;"/><polygon fill="#A80036" points="399.848,625.4146,402.666,615.9775,399.2095,620.4556,394.7315,616.9991,399.848,625.4146" style="stroke: #A80036; stroke-width: 1.0;"/><text fill="#000000" font-family="sans-serif" font-size="13" lengthAdjust="spacingAndGlyphs" textLength="14" x="399" y="602.1357">no</text><path d="M388.385,660.9326 C379.64,671.7186 368.215,685.8096 358.892,697.3076 " fill="none" style="stroke: #A80036; stroke-width: 1.0;"/><polygon fill="#A80036" points="355.561,701.4156,364.3365,696.9445,358.7102,697.532,358.1227,691.9057,355.561,701.4156" style="stroke: #A80036; stroke-width: 1.0;"/><path d="M205,273.1736 C205,287.6336 205,313.7866 205,336.1406 C205,336.1406 205,336.1406 205,720.1406 C205,760.9496 256.497,774.4596 296.345,778.8056 " fill="none" style="stroke: #A80036; stroke-width: 1.0;"/><polygon fill="#A80036" points="301.636,779.3376,293.0797,774.4602,296.6609,778.8391,292.282,782.4204,301.636,779.3376" style="stroke: #A80036; stroke-width: 1.0;"/><text fill="#000000" font-family="sans-serif" font-size="13" lengthAdjust="spacingAndGlyphs" textLength="27" x="206" y="520.1357">false</text><path d="M342,785.8936 C342,793.4336 342,812.5366 342,826.6116 " fill="none" style="stroke: #A80036; stroke-width: 1.0;"/><polygon fill="#A80036" points="342,831.9116,346,822.9116,342,826.9116,338,822.9116,342,831.9116" style="stroke: #A80036; stroke-width: 1.0;"/><text fill="#000000" font-family="sans-serif" font-size="13" lengthAdjust="spacingAndGlyphs" textLength="70" x="257.5625" y="821.1348">Do redirect?</text><path d="M354.243,844.1406 C366.735,844.1406 387.052,844.1406 406.895,844.1406 " fill="none" style="stroke: #A80036; stroke-width: 1.0;"/><polygon fill="#A80036" points="411.925,844.1406,402.925,840.1406,406.925,844.1406,402.925,848.1406,411.925,844.1406" style="stroke: #A80036; stroke-width: 1.0;"/><text fill="#000000" font-family="sans-serif" font-size="13" lengthAdjust="spacingAndGlyphs" textLength="21" x="372.5" y="837.6357">yes</text><path d="M471.99,861.8296 C479.02,881.4396 486.986,914.2636 473,937.6406 C459.599,960.0396 430.453,971.6916 410.773,977.2396 " fill="none" style="stroke: #A80036; stroke-width: 1.0;"/><polygon fill="#A80036" points="405.742,978.5846,415.4698,980.1242,410.5723,977.2931,413.4034,972.3956,405.742,978.5846" style="stroke: #A80036; stroke-width: 1.0;"/><path d="M336.193,850.9476 C323.378,863.7626 292.59,894.5506 277.151,909.9896 " fill="none" style="stroke: #A80036; stroke-width: 1.0;"/><polygon fill="#A80036" points="273.577,913.5636,282.7694,910.0281,277.1125,910.0281,277.1125,904.3712,273.577,913.5636" style="stroke: #A80036; stroke-width: 1.0;"/><text fill="#000000" font-family="sans-serif" font-size="13" lengthAdjust="spacingAndGlyphs" textLength="73" x="239.0274" y="891.8019">Do Forward?</text><path d="M218.58,920.1406 C232.809,920.1406 246.535,920.1406 255.895,920.1406 " fill="none" style="stroke: #A80036; stroke-width: 1.0;"/><polygon fill="#A80036" points="213.322,920.1406,222.322,924.1406,218.322,920.1406,222.322,916.1406,213.322,920.1406" style="stroke: #A80036; stroke-width: 1.0;"/><text fill="#000000" font-family="sans-serif" font-size="13" lengthAdjust="spacingAndGlyphs" textLength="21" x="224" y="913.6357">yes</text><path d="M213.218,935.4786 C265.591,949.0776 341.063,968.6746 374.258,977.2936 " fill="none" style="stroke: #A80036; stroke-width: 1.0;"/><polygon fill="#A80036" points="379.213,978.5796,371.5059,972.4476,374.3732,977.324,369.4969,980.1913,379.213,978.5796" style="stroke: #A80036; stroke-width: 1.0;"/><path d="M280.243,920.1406 C288.773,920.1406 300.95,920.1406 314.134,920.1406 " fill="none" style="stroke: #A80036; stroke-width: 1.0;"/><polygon fill="#A80036" points="319.431,920.1406,310.431,916.1406,314.431,920.1406,310.431,924.1406,319.431,920.1406" style="stroke: #A80036; stroke-width: 1.0;"/><text fill="#000000" font-family="sans-serif" font-size="13" lengthAdjust="spacingAndGlyphs" textLength="14" x="292.75" y="913.6357">no</text><path d="M391,937.6726 C391,949.1526 391,963.9766 391,973.1436 " fill="none" style="stroke: #A80036; stroke-width: 1.0;"/><polygon fill="#A80036" points="391,978.2586,395,969.2586,391,973.2586,387,969.2586,391,978.2586" style="stroke: #A80036; stroke-width: 1.0;"/><path d="M391,986.8936 C391,993.5236 391,1009.0936 391,1022.3246 " fill="none" style="stroke: #A80036; stroke-width: 1.0;"/><polygon fill="#A80036" points="391,1027.4435,395,1018.4435,391,1022.4435,387,1018.4435,391,1027.4435" style="stroke: #A80036; stroke-width: 1.0;"/><path d="M391,1062.9214 C391,1073.9305 391,1088.1623 391,1098.5767 " fill="none" style="stroke: #A80036; stroke-width: 1.0;"/><polygon fill="#A80036" points="391,1103.6375,395,1094.6375,391,1098.6375,387,1094.6375,391,1103.6375" style="stroke: #A80036; stroke-width: 1.0;"/></g></svg>