<?xml version="1.0" encoding="UTF-8" standalone="no"?><svg xmlns="http://www.w3.org/2000/svg" xmlns:xlink="http://www.w3.org/1999/xlink" contentScriptType="application/ecmascript" contentStyleType="text/css" height="1130px" preserveAspectRatio="none" style="width:558px;height:1130px;" version="1.1" viewBox="0 0 558 1130"
    width="558px" zoomAndPan="magnify"><defs><filter height="300%" id="fciwhmu" width="300%" x="-1" y="-1"><feGaussianBlur result="blurOut" stdDeviation="2.0"/><feColorMatrix in="blurOut" result="blurOut2" type="matrix" values="0 0 0 0 0 0 0 0 0 0 0 0 0 0 0 0 0 0 .4 0"/><feOffset dx="4.0" dy="4.0" in="blurOut2" result="blurOut3"/><feBlend in="SourceGraphic" in2="blurOut3" mode="normal"/></filter></defs><g><text fill="#000000" font-family="sans-serif" font-size="18" lengthAdjust="spacingAndGlyphs" textLength="123" x="230" y="18.6855">Friend Request</text><ellipse cx="225" cy="40.6406" fill="#000000" filter="url(#fciwhmu)" rx="10" ry="10" style="stroke: none; stroke-width: 1.0;"/><rect fill="#FEFECE" filter="url(#fciwhmu)" height="35.0938" rx="12.5" ry="12.5" style="stroke: #A80036; stroke-width: 1.5;" width="81" x="184.5" y="91.6406"/><text fill="#000000" font-family="sans-serif" font-size="12" lengthAdjust="spacingAndGlyphs" textLength="61" x="194.5" y="114.0977">Visit Profile</text><rect fill="#FEFECE" filter="url(#fciwhmu)" height="35.0938" rx="12.5" ry="12.5" style="stroke: #A80036; stroke-width: 1.5;" width="128" x="161" y="167.6406"/><text fill="#000000" font-family="sans-serif" font-size="12" lengthAdjust="spacingAndGlyphs" textLength="108" x="171" y="190.0977">Click On Add Friend</text><polygon fill="#FEFECE" filter="url(#fciwhmu)" points="225,249.1406,237,261.1406,225,273.1406,213,261.1406,225,249.1406" style="stroke: #A80036; stroke-width: 1.5;"/><rect fill="#FEFECE" filter="url(#fciwhmu)" height="35.0938" rx="12.5" ry="12.5" style="stroke: #A80036; stroke-width: 1.5;" width="188" x="282" y="243.6406"/><text fill="#000000" font-family="sans-serif" font-size="12" lengthAdjust="spacingAndGlyphs" textLength="168" x="292" y="266.0977">Insert username to friend array</text><polygon fill="#FEFECE" filter="url(#fciwhmu)" points="385,325.1406,397,337.1406,385,349.1406,373,337.1406,385,325.1406" style="stroke: #A80036; stroke-width: 1.5;"/><rect fill="#FEFECE" filter="url(#fciwhmu)" height="35.0938" rx="12.5" ry="12.5" style="stroke: #A80036; stroke-width: 1.5;" width="113" x="436.5" y="319.6406"/><text fill="#000000" font-family="sans-serif" font-size="12" lengthAdjust="spacingAndGlyphs" textLength="93" x="446.5" y="342.0977">Process controls</text><polygon fill="#FEFECE" filter="url(#fciwhmu)" points="493,395.6406,505,407.6406,493,419.6406,481,407.6406,493,395.6406" style="stroke: #A80036; stroke-width: 1.5;"/><rect fill="#000000" filter="url(#fciwhmu)" height="8" style="stroke: none; stroke-width: 1.0;" width="80" x="367" y="477.6406"/><rect fill="#000000" filter="url(#fciwhmu)" height="8" style="stroke: none; stroke-width: 1.0;" width="80" x="321" y="777.6406"/><polygon fill="#FEFECE" filter="url(#fciwhmu)" points="407,543.6406,419,555.6406,407,567.6406,395,555.6406,407,543.6406" style="stroke: #A80036; stroke-width: 1.5;"/><rect fill="#FEFECE" filter="url(#fciwhmu)" height="35.0938" rx="12.5" ry="12.5" style="stroke: #A80036; stroke-width: 1.5;" width="99" x="255.5" y="625.6406"/><text fill="#000000" font-family="sans-serif" font-size="12" lengthAdjust="spacingAndGlyphs" textLength="79" x="265.5" y="648.0977">Page.onPost()</text><rect fill="#FEFECE" filter="url(#fciwhmu)" height="35.0938" rx="12.5" ry="12.5" style="stroke: #A80036; stroke-width: 1.5;" width="115" x="303.5" y="701.6406"/><text fill="#000000" font-family="sans-serif" font-size="12" lengthAdjust="spacingAndGlyphs" textLength="95" x="313.5" y="724.0977">Page.onRender()</text><rect fill="#FEFECE" filter="url(#fciwhmu)" height="35.0938" rx="12.5" ry="12.5" style="stroke: #A80036; stroke-width: 1.5;" width="93" x="374.5" y="625.6406"/><text fill="#000000" font-family="sans-serif" font-size="12" lengthAdjust="spacingAndGlyphs" textLength="73" x="384.5" y="648.0977">Page.onGet()</text><polygon fill="#FEFECE" filter="url(#fciwhmu)" points="361,832.1406,373,844.1406,361,856.1406,349,844.1406,361,832.1406" style="stroke: #A80036; stroke-width: 1.5;"/><rect fill="#FEFECE" filter="url(#fciwhmu)" height="35.0938" rx="12.5" ry="12.5" style="stroke: #A80036; stroke-width: 1.5;" width="106" x="431" y="826.6406"/><text fill="#000000" font-family="sans-serif" font-size="12" lengthAdjust="spacingAndGlyphs" textLength="86" x="441" y="849.0977">redirect request</text><rect fill="#000000" filter="url(#fciwhmu)" height="8" style="stroke: none; stroke-width: 1.0;" width="80" x="370" y="978.6406"/><polygon fill="#FEFECE" filter="url(#fciwhmu)" points="287,908.1406,299,920.1406,287,932.1406,275,920.1406,287,908.1406" style="stroke: #A80036; stroke-width: 1.5;"/><rect fill="#FEFECE" filter="url(#fciwhmu)" height="35.0938" rx="12.5" ry="12.5" style="stroke: #A80036; stroke-width: 1.5;" width="110" x="122" y="902.6406"/><text fill="#000000" font-family="sans-serif" font-size="12" lengthAdjust="spacingAndGlyphs" textLength="90" x="132" y="925.0977">Forward request</text><rect fill="#FEFECE" filter="url(#fciwhmu)" height="35.0938" rx="12.5" ry="12.5" style="stroke: #A80036; stroke-width: 1.5;" width="143" x="338.5" y="902.6406"/><text fill="#000000" font-family="sans-serif" font-size="12" lengthAdjust="spacingAndGlyphs" textLength="123" x="348.5" y="925.0977">Render page template</text><rect fill="#FEFECE" filter="url(#fciwhmu)" height="35.0938" rx="12.5" ry="12.5" style="stroke: #A80036; stroke-width: 1.5;" width="116" x="352" y="1027.6406"/><text fill="#000000" font-family="sans-serif" font-size="12" lengthAdjust="spacingAndGlyphs" textLength="96" x="362" y="1050.0977">Page.onDestroy()</text><ellipse cx="410" cy="1113.6406" fill="none" filter="url(#fciwhmu)" rx="10" ry="10" style="stroke: #000000; stroke-width: 1.0;"/><ellipse cx="410.5" cy="1114.1406" fill="#000000" rx="6" ry="6" style="stroke: none; stroke-width: 1.0;"/><path d="M225,50.8906 C225,60.0706 225,74.4806 225,86.5406 " fill="none" style="stroke: #A80036; stroke-width: 1.0;"/><polygon fill="#A80036" points="225,91.5506,229,82.5506,225,86.5506,221,82.5506,225,91.5506" style="stroke: #A80036; stroke-width: 1.0;"/><path d="M225,126.9326 C225,137.4346 225,151.0696 225,162.3946 " fill="none" style="stroke: #A80036; stroke-width: 1.0;"/><polygon fill="#A80036" points="225,167.4156,229,158.4156,225,162.4156,221,158.4156,225,167.4156" style="stroke: #A80036; stroke-width: 1.0;"/><path d="M225,202.9326 C225,215.0616 225,231.3706 225,243.4716 " fill="none" style="stroke: #A80036; stroke-width: 1.0;"/><polygon fill="#A80036" points="225,248.7046,229,239.7046,225,243.7046,221,239.7046,225,248.7046" style="stroke: #A80036; stroke-width: 1.0;"/><text fill="#000000" font-family="sans-serif" font-size="13" lengthAdjust="spacingAndGlyphs" textLength="204" x="0.9187" y="242.211">profile owner accepts friend request</text><path d="M237.102,261.1406 C246.596,261.1406 260.811,261.1406 276.578,261.1406 " fill="none" style="stroke: #A80036; stroke-width: 1.0;"/><polygon fill="#A80036" points="281.98,261.1406,272.98,257.1406,276.98,261.1406,272.98,265.1406,281.98,261.1406" style="stroke: #A80036; stroke-width: 1.0;"/><text fill="#000000" font-family="sans-serif" font-size="13" lengthAdjust="spacingAndGlyphs" textLength="22" x="248.5" y="254.6357">true</text><path d="M378.042,278.9326 C379.571,291.5056 381.647,308.5696 383.132,320.7816 " fill="none" style="stroke: #A80036; stroke-width: 1.0;"/><polygon fill="#A80036" points="383.769,326.0186,386.6519,316.6011,383.1647,321.0553,378.7105,317.5681,383.769,326.0186" style="stroke: #A80036; stroke-width: 1.0;"/><text fill="#000000" font-family="sans-serif" font-size="13" lengthAdjust="spacingAndGlyphs" textLength="63" x="304.8126" y="314.2775">isForward?</text><path d="M397.389,337.1406 C405.998,337.1406 418.187,337.1406 430.99,337.1406 " fill="none" style="stroke: #A80036; stroke-width: 1.0;"/><polygon fill="#A80036" points="436.114,337.1406,427.114,333.1406,431.114,337.1406,427.114,341.1406,436.114,337.1406" style="stroke: #A80036; stroke-width: 1.0;"/><text fill="#000000" font-family="sans-serif" font-size="13" lengthAdjust="spacingAndGlyphs" textLength="14" x="409.75" y="330.6357">no</text><path d="M493,354.7226 C493,365.5126 493,379.5236 493,390.2706 " fill="none" style="stroke: #A80036; stroke-width: 1.0;"/><polygon fill="#A80036" points="493,395.5586,497,386.5586,493,390.5586,489,386.5586,493,395.5586" style="stroke: #A80036; stroke-width: 1.0;"/><text fill="#000000" font-family="sans-serif" font-size="13" lengthAdjust="spacingAndGlyphs" textLength="123" x="349.6281" y="386.4598">continue processing?</text><path d="M486.815,413.8186 C471.466,426.6686 431.654,460.0006 414.761,474.1426 " fill="none" style="stroke: #A80036; stroke-width: 1.0;"/><polygon fill="#A80036" points="410.644,477.5896,420.1121,474.8776,414.4772,474.3793,414.9756,468.7444,410.644,477.5896" style="stroke: #A80036; stroke-width: 1.0;"/><text fill="#000000" font-family="sans-serif" font-size="13" lengthAdjust="spacingAndGlyphs" textLength="21" x="456" y="454.1357">yes</text><path d="M494.332,418.4016 C496.099,432.2256 499,458.3136 499,480.6406 C499,480.6406 499,480.6406 499,720.1406 C499,761.3236 446.81,774.7346 406.621,778.9566 " fill="none" style="stroke: #A80036; stroke-width: 1.0;"/><polygon fill="#A80036" points="401.286,779.4716,410.6284,782.5892,406.2629,778.9916,409.8605,774.6261,401.286,779.4716" style="stroke: #A80036; stroke-width: 1.0;"/><text fill="#000000" font-family="sans-serif" font-size="13" lengthAdjust="spacingAndGlyphs" textLength="14" x="500" y="602.1357">no</text><path d="M386.512,347.9356 C390.61,374.4806 401.879,447.4696 405.707,472.2676 " fill="none" style="stroke: #A80036; stroke-width: 1.0;"/><polygon fill="#A80036" points="406.477,477.2546,409.057,467.7497,405.7141,472.3132,401.1507,468.9703,406.477,477.2546" style="stroke: #A80036; stroke-width: 1.0;"/><text fill="#000000" font-family="sans-serif" font-size="13" lengthAdjust="spacingAndGlyphs" textLength="21" x="398" y="413.1357">yes</text><path d="M407,485.7346 C407,494.6626 407,520.9416 407,538.3436 " fill="none" style="stroke: #A80036; stroke-width: 1.0;"/><polygon fill="#A80036" points="407,543.4306,411,534.4306,407,538.4306,403,534.4306,407,543.4306" style="stroke: #A80036; stroke-width: 1.0;"/><text fill="#000000" font-family="sans-serif" font-size="13" lengthAdjust="spacingAndGlyphs" textLength="48" x="349.1" y="532.6616">is Post?</text><path d="M400.925,561.7326 C387.059,573.3556 352.458,602.3596 328.835,622.1606 " fill="none" style="stroke: #A80036; stroke-width: 1.0;"/><polygon fill="#A80036" points="324.852,625.4996,334.3195,622.7856,328.6845,622.2885,329.1816,616.6535,324.852,625.4996" style="stroke: #A80036; stroke-width: 1.0;"/><text fill="#000000" font-family="sans-serif" font-size="13" lengthAdjust="spacingAndGlyphs" textLength="21" x="370" y="602.1357">yes</text><path d="M317.707,660.9326 C325.87,671.7186 336.533,685.8096 345.234,697.3076 " fill="none" style="stroke: #A80036; stroke-width: 1.0;"/><polygon fill="#A80036" points="348.343,701.4156,346.1019,691.8251,345.3259,697.4285,339.7225,696.6525,348.343,701.4156" style="stroke: #A80036; stroke-width: 1.0;"/><path d="M361,736.6726 C361,748.1526 361,762.9766 361,772.1436 " fill="none" style="stroke: #A80036; stroke-width: 1.0;"/><polygon fill="#A80036" points="361,777.2586,365,768.2586,361,772.2586,357,768.2586,361,777.2586" style="stroke: #A80036; stroke-width: 1.0;"/><path d="M408.552,566.1176 C410.681,579.1196 414.57,602.8706 417.436,620.3766 " fill="none" style="stroke: #A80036; stroke-width: 1.0;"/><polygon fill="#A80036" points="418.29,625.5906,420.7846,616.0629,417.4828,620.6562,412.8896,617.3544,418.29,625.5906" style="stroke: #A80036; stroke-width: 1.0;"/><text fill="#000000" font-family="sans-serif" font-size="13" lengthAdjust="spacingAndGlyphs" textLength="14" x="415" y="602.1357">no</text><path d="M407.385,660.9326 C398.64,671.7186 387.215,685.8096 377.892,697.3076 " fill="none" style="stroke: #A80036; stroke-width: 1.0;"/><polygon fill="#A80036" points="374.561,701.4156,383.3365,696.9445,377.7102,697.532,377.1227,691.9057,374.561,701.4156" style="stroke: #A80036; stroke-width: 1.0;"/><path d="M224.763,272.9246 C224.467,287.3316 224,313.6556 224,336.1406 C224,336.1406 224,336.1406 224,720.1406 C224,760.9496 275.497,774.4596 315.345,778.8056 " fill="none" style="stroke: #A80036; stroke-width: 1.0;"/><polygon fill="#A80036" points="320.636,779.3376,312.0797,774.4602,315.6609,778.8391,311.282,782.4204,320.636,779.3376" style="stroke: #A80036; stroke-width: 1.0;"/><text fill="#000000" font-family="sans-serif" font-size="13" lengthAdjust="spacingAndGlyphs" textLength="27" x="225" y="520.1357">false</text><path d="M361,785.8936 C361,793.4336 361,812.5366 361,826.6116 " fill="none" style="stroke: #A80036; stroke-width: 1.0;"/><polygon fill="#A80036" points="361,831.9116,365,822.9116,361,826.9116,357,822.9116,361,831.9116" style="stroke: #A80036; stroke-width: 1.0;"/><text fill="#000000" font-family="sans-serif" font-size="13" lengthAdjust="spacingAndGlyphs" textLength="70" x="276.5625" y="821.1348">Do redirect?</text><path d="M373.243,844.1406 C385.735,844.1406 406.052,844.1406 425.895,844.1406 " fill="none" style="stroke: #A80036; stroke-width: 1.0;"/><polygon fill="#A80036" points="430.925,844.1406,421.925,840.1406,425.925,844.1406,421.925,848.1406,430.925,844.1406" style="stroke: #A80036; stroke-width: 1.0;"/><text fill="#000000" font-family="sans-serif" font-size="13" lengthAdjust="spacingAndGlyphs" textLength="21" x="391.5" y="837.6357">yes</text><path d="M490.99,861.8296 C498.02,881.4396 505.986,914.2636 492,937.6406 C478.599,960.0396 449.453,971.6916 429.773,977.2396 " fill="none" style="stroke: #A80036; stroke-width: 1.0;"/><polygon fill="#A80036" points="424.742,978.5846,434.4698,980.1242,429.5723,977.2931,432.4034,972.3956,424.742,978.5846" style="stroke: #A80036; stroke-width: 1.0;"/><path d="M355.193,850.9476 C342.378,863.7626 311.59,894.5506 296.151,909.9896 " fill="none" style="stroke: #A80036; stroke-width: 1.0;"/><polygon fill="#A80036" points="292.577,913.5636,301.7694,910.0281,296.1125,910.0281,296.1125,904.3712,292.577,913.5636" style="stroke: #A80036; stroke-width: 1.0;"/><text fill="#000000" font-family="sans-serif" font-size="13" lengthAdjust="spacingAndGlyphs" textLength="73" x="258.0274" y="891.8019">Do Forward?</text><path d="M237.58,920.1406 C251.809,920.1406 265.535,920.1406 274.895,920.1406 " fill="none" style="stroke: #A80036; stroke-width: 1.0;"/><polygon fill="#A80036" points="232.322,920.1406,241.322,924.1406,237.322,920.1406,241.322,916.1406,232.322,920.1406" style="stroke: #A80036; stroke-width: 1.0;"/><text fill="#000000" font-family="sans-serif" font-size="13" lengthAdjust="spacingAndGlyphs" textLength="21" x="243" y="913.6357">yes</text><path d="M232.218,935.4786 C284.591,949.0776 360.063,968.6746 393.258,977.2936 " fill="none" style="stroke: #A80036; stroke-width: 1.0;"/><polygon fill="#A80036" points="398.213,978.5796,390.5059,972.4476,393.3732,977.324,388.4969,980.1913,398.213,978.5796" style="stroke: #A80036; stroke-width: 1.0;"/><path d="M299.243,920.1406 C307.773,920.1406 319.95,920.1406 333.134,920.1406 " fill="none" style="stroke: #A80036; stroke-width: 1.0;"/><polygon fill="#A80036" points="338.431,920.1406,329.431,916.1406,333.431,920.1406,329.431,924.1406,338.431,920.1406" style="stroke: #A80036; stroke-width: 1.0;"/><text fill="#000000" font-family="sans-serif" font-size="13" lengthAdjust="spacingAndGlyphs" textLength="14" x="311.75" y="913.6357">no</text><path d="M410,937.6726 C410,949.1526 410,963.9766 410,973.1436 " fill="none" style="stroke: #A80036; stroke-width: 1.0;"/><polygon fill="#A80036" points="410,978.2586,414,969.2586,410,973.2586,406,969.2586,410,978.2586" style="stroke: #A80036; stroke-width: 1.0;"/><path d="M410,986.8936 C410,993.5236 410,1009.0936 410,1022.3246 " fill="none" style="stroke: #A80036; stroke-width: 1.0;"/><polygon fill="#A80036" points="410,1027.4435,414,1018.4435,410,1022.4435,406,1018.4435,410,1027.4435" style="stroke: #A80036; stroke-width: 1.0;"/><path d="M410,1062.9214 C410,1073.9305 410,1088.1623 410,1098.5767 " fill="none" style="stroke: #A80036; stroke-width: 1.0;"/><polygon fill="#A80036" points="410,1103.6375,414,1094.6375,410,1098.6375,406,1094.6375,410,1103.6375" style="stroke: #A80036; stroke-width: 1.0;"/></g></svg>