<?xml version="1.0" encoding="UTF-8" standalone="no"?><svg xmlns="http://www.w3.org/2000/svg" xmlns:xlink="http://www.w3.org/1999/xlink" contentScriptType="application/ecmascript" contentStyleType="text/css" height="660px" preserveAspectRatio="none" style="width:432px;height:660px;" version="1.1" viewBox="0 0 432 660"
    width="432px" zoomAndPan="magnify"><defs><filter height="300%" id="fltw84u" width="300%" x="-1" y="-1"><feGaussianBlur result="blurOut" stdDeviation="2.0"/><feColorMatrix in="blurOut" result="blurOut2" type="matrix" values="0 0 0 0 0 0 0 0 0 0 0 0 0 0 0 0 0 0 .4 0"/><feOffset dx="4.0" dy="4.0" in="blurOut2" result="blurOut3"/><feBlend in="SourceGraphic" in2="blurOut3" mode="normal"/></filter></defs><g><text fill="#000000" font-family="sans-serif" font-size="18" lengthAdjust="spacingAndGlyphs" textLength="131" x="156" y="18.6855">"Use Case Title"</text><!--cluster A Rectangle--><rect fill="#FFFFFF" filter="url(#fltw84u)" height="83" style="stroke: #000000; stroke-width: 2.0;" width="100" x="228.5" y="570.6406"/><text fill="#000000" font-family="sans-serif" font-size="14" font-weight="bold" lengthAdjust="spacingAndGlyphs" textLength="84" x="236.5" y="587.1738">A Rectangle</text><ellipse cx="278.5919" cy="622.0923" fill="#FEFECE" filter="url(#fltw84u)" rx="22.0919" ry="15.4517" style="stroke: #A80036; stroke-width: 1.5;"/><text fill="#000000" font-family="sans-serif" font-size="14" lengthAdjust="spacingAndGlyphs" textLength="27" x="265.0919" y="627.397">UC3</text><!--entity User--><ellipse cx="278.5" cy="285.6406" fill="#FEFECE" filter="url(#fltw84u)" rx="8" ry="8" style="stroke: #A80036; stroke-width: 2.0;"/><path d="M278.5,293.6406 L278.5,320.6406 M265.5,301.6406 L291.5,301.6406 M278.5,320.6406 L265.5,335.6406 M278.5,320.6406 L291.5,335.6406 " fill="#FEFECE" filter="url(#fltw84u)" style="stroke: #A80036; stroke-width: 2.0;"/><text fill="#000000" font-family="sans-serif" font-size="14" lengthAdjust="spacingAndGlyphs" textLength="29" x="264" y="357.1738">User</text><!--entity Admin--><ellipse cx="376.5" cy="448.6406" fill="#FEFECE" filter="url(#fltw84u)" rx="8" ry="8" style="stroke: #A80036; stroke-width: 2.0;"/><path d="M376.5,456.6406 L376.5,483.6406 M363.5,464.6406 L389.5,464.6406 M376.5,483.6406 L363.5,498.6406 M376.5,483.6406 L389.5,498.6406 " fill="#FEFECE" filter="url(#fltw84u)" style="stroke: #A80036; stroke-width: 2.0;"/><text fill="#000000" font-family="sans-serif" font-size="14" lengthAdjust="spacingAndGlyphs" textLength="39" x="357" y="520.1738">Admin</text><!--entity AnotherActor--><ellipse cx="278.5" cy="448.6406" fill="#FEFECE" filter="url(#fltw84u)" rx="8" ry="8" style="stroke: #A80036; stroke-width: 2.0;"/><path d="M278.5,456.6406 L278.5,483.6406 M265.5,464.6406 L291.5,464.6406 M278.5,483.6406 L265.5,498.6406 M278.5,483.6406 L291.5,498.6406 " fill="#FEFECE" filter="url(#fltw84u)" style="stroke: #A80036; stroke-width: 2.0;"/><text fill="#000000" font-family="sans-serif" font-size="14" lengthAdjust="spacingAndGlyphs" textLength="87" x="235" y="520.1738">Another Actor</text><ellipse cx="85.4028" cy="481.0641" fill="#FEFECE" filter="url(#fltw84u)" rx="79.4028" ry="25.4234" style="stroke: #A80036; stroke-width: 1.5;"/><text fill="#000000" font-family="sans-serif" font-size="14" font-style="italic" lengthAdjust="spacingAndGlyphs" textLength="47" x="61.9028" y="473.837">«Main»</text><text fill="#000000" font-family="sans-serif" font-size="14" lengthAdjust="spacingAndGlyphs" textLength="120" x="25.4028" y="491.4464">Use the application</text><ellipse cx="278.5143" cy="122.6478" fill="#FEFECE" filter="url(#fltw84u)" rx="146.5143" ry="92.0072" style="stroke: #A80036; stroke-width: 1.5;"/><text fill="#000000" font-family="sans-serif" font-size="14" lengthAdjust="spacingAndGlyphs" textLength="79" x="239.0143" y="66.3177">You can use</text><text fill="#000000" font-family="sans-serif" font-size="14" lengthAdjust="spacingAndGlyphs" textLength="231" x="163.0143" y="83.9271">several lines to define your usecase.</text><text fill="#000000" font-family="sans-serif" font-size="14" lengthAdjust="spacingAndGlyphs" textLength="185" x="186.0143" y="101.5365">You can also use separators.</text><line style="stroke: #A80036; stroke-width: 1.0;" x1="135.8424" x2="421.1862" y1="104.6126" y2="104.6126"/><text fill="#000000" font-family="sans-serif" font-size="14" lengthAdjust="spacingAndGlyphs" textLength="205" x="176.0143" y="123.1458">Several separators are possible.</text><line style="stroke: #A80036; stroke-width: 1.0;" x1="133.4973" x2="423.5313" y1="130.222" y2="130.222"/><line style="stroke: #A80036; stroke-width: 1.0;" x1="133.7954" x2="423.2331" y1="132.222" y2="132.222"/><text fill="#000000" font-family="sans-serif" font-size="14" lengthAdjust="spacingAndGlyphs" textLength="144" x="206.5143" y="148.7552">And you can add titles:</text><text fill="#000000" font-family="sans-serif" font-size="14" lengthAdjust="spacingAndGlyphs" textLength="182" x="187.5143" y="187.974">This allows large description.</text><line style="stroke: #A80036; stroke-width: 1.0; stroke-dasharray: 1.0,2.0;" x1="149.1464" x2="243.5143" y1="164.6361" y2="164.6361"/><text fill="#000000" font-family="sans-serif" font-size="14" lengthAdjust="spacingAndGlyphs" textLength="70" x="243.5143" y="169.8646">Conclusion</text><line style="stroke: #A80036; stroke-width: 1.0; stroke-dasharray: 1.0,2.0;" x1="313.5143" x2="407.8821" y1="164.6361" y2="164.6361"/><path d="M304.17,361.3126 C320.695,388.4616 341.838,423.1966 356.99,448.0896 " fill="none" style="stroke: #A80036; stroke-width: 1.0;"/><polygon fill="none" points="298.017,364.6676,293.598,343.9436,309.976,357.3886,298.017,364.6676" style="stroke: #A80036; stroke-width: 1.0;"/><path d="M234.622,481.1406 C213.148,481.1406 191.675,481.1406 170.202,481.1406 " fill="none" style="stroke: #A80036; stroke-width: 1.0;"/><polygon fill="#A80036" points="165.037,481.1406,174.037,485.1406,170.037,481.1406,174.037,477.1406,165.037,481.1406" style="stroke: #A80036; stroke-width: 1.0;"/><path d="M278.5,523.8456 C278.5,549.5376 278.5,581.2981 278.5,601.3938 " fill="none" style="stroke: #A80036; stroke-width: 1.0;"/><polygon fill="#A80036" points="278.5,606.489,282.5,597.489,278.5,601.489,274.5,597.489,278.5,606.489" style="stroke: #A80036; stroke-width: 1.0;"/><path d="M278.5,220.1886 C278.5,239.5716 278.5,258.9656 278.5,275.2586 " fill="none" style="stroke: #A80036; stroke-width: 1.0; stroke-dasharray: 7.0,7.0;"/><polygon fill="#A80036" points="278.5,214.7246,274.5,223.7246,278.5,219.7246,282.5,223.7246,278.5,214.7246" style="stroke: #A80036; stroke-width: 1.0;"/><path d="M263.356,331.7736 C231.934,357.9856 159.085,418.7556 117.016,453.8496 " fill="none" style="stroke: #A80036; stroke-width: 1.0;"/><polygon fill="#A80036" points="113.043,457.1646,122.5161,454.47,116.8821,453.9613,117.3908,448.3274,113.043,457.1646" style="stroke: #A80036; stroke-width: 1.0;"/><text fill="#000000" font-family="sans-serif" font-size="13" lengthAdjust="spacingAndGlyphs" textLength="75" x="188.5" y="405.1357">A small label</text></g></svg>