<?xml version="1.0" encoding="UTF-8" standalone="no"?><svg xmlns="http://www.w3.org/2000/svg" xmlns:xlink="http://www.w3.org/1999/xlink" contentScriptType="application/ecmascript" contentStyleType="text/css" height="359px" preserveAspectRatio="none" style="width:288px;height:359px;" version="1.1" viewBox="0 0 288 359"
    width="288px" zoomAndPan="magnify"><defs><filter height="300%" id="fpueipq" width="300%" x="-1" y="-1"><feGaussianBlur result="blurOut" stdDeviation="2.0"/><feColorMatrix in="blurOut" result="blurOut2" type="matrix" values="0 0 0 0 0 0 0 0 0 0 0 0 0 0 0 0 0 0 .4 0"/><feOffset dx="4.0" dy="4.0" in="blurOut2" result="blurOut3"/><feBlend in="SourceGraphic" in2="blurOut3" mode="normal"/></filter></defs><g><!--entity User--><ellipse cx="21" cy="164" fill="#FEFECE" filter="url(#fpueipq)" rx="8" ry="8" style="stroke: #A80036; stroke-width: 2.0;"/><path d="M21,172 L21,199 M8,180 L34,180 M21,199 L8,214 M21,199 L34,214 " fill="#FEFECE" filter="url(#fpueipq)" style="stroke: #A80036; stroke-width: 2.0;"/><text fill="#000000" font-family="sans-serif" font-size="14" lengthAdjust="spacingAndGlyphs" textLength="29" x="6.5" y="235.5332">User</text><ellipse cx="130.2132" cy="196.4517" fill="#FEFECE" filter="url(#fpueipq)" rx="24.2132" ry="15.4517" style="stroke: #A80036; stroke-width: 1.5;"/><text fill="#000000" font-family="sans-serif" font-size="14" lengthAdjust="spacingAndGlyphs" textLength="30" x="115.2132" y="201.7564">Start</text><ellipse cx="147.9182" cy="334.8836" fill="#FEFECE" filter="url(#fpueipq)" rx="77.4182" ry="17.8836" style="stroke: #A80036; stroke-width: 1.5;"/><text fill="#000000" font-family="sans-serif" font-size="14" lengthAdjust="spacingAndGlyphs" textLength="120" x="87.9182" y="340.1883">Use the application</text><!--entity Main Admin--><ellipse cx="224" cy="18" fill="#FEFECE" filter="url(#fpueipq)" rx="8" ry="8" style="stroke: #A80036; stroke-width: 2.0;"/><path d="M224,26 L224,53 M211,34 L237,34 M224,53 L211,68 M224,53 L237,68 " fill="#FEFECE" filter="url(#fpueipq)" style="stroke: #A80036; stroke-width: 2.0;"/><text fill="#000000" font-family="sans-serif" font-size="14" lengthAdjust="spacingAndGlyphs" textLength="73" x="187.5" y="89.5332">Main Admin</text><path d="M36.3281,196.5 C57.7822,196.5 79.2363,196.5 100.6904,196.5 " fill="none" style="stroke: #A80036; stroke-width: 1.0;"/><polygon fill="#A80036" points="105.8502,196.5,96.8502,192.5,100.8502,196.5,96.8502,200.5,105.8502,196.5" style="stroke: #A80036; stroke-width: 1.0;"/><path d="M36.0673,213.694 C59.1133,238.464 103.1142,285.7566 128.544,313.0883 " fill="none" style="stroke: #A80036; stroke-width: 1.0;"/><polygon fill="#A80036" points="132.156,316.971,128.9532,307.6575,128.7498,313.3107,123.0966,313.1073,132.156,316.971" style="stroke: #A80036; stroke-width: 1.0;"/><text fill="#000000" font-family="sans-serif" font-size="13" lengthAdjust="spacingAndGlyphs" textLength="75" x="105" y="283.4951">A small label</text><path d="M224.758,93.067 C224.116,141.745 218.188,223.763 189,287 C184.476,296.8006 177.259,306.0953 170.131,313.792 " fill="none" style="stroke: #A80036; stroke-width: 1.0;"/><polygon fill="#A80036" points="166.652,317.4372,175.7595,313.6885,170.1042,313.8203,169.9725,308.165,166.652,317.4372" style="stroke: #A80036; stroke-width: 1.0;"/><text fill="#000000" font-family="sans-serif" font-size="13" lengthAdjust="spacingAndGlyphs" textLength="38" x="235.5" y="185.4951">This is</text><text fill="#000000" font-family="sans-serif" font-size="13" lengthAdjust="spacingAndGlyphs" textLength="65" x="222" y="201.8467">yet another</text><text fill="#000000" font-family="sans-serif" font-size="13" lengthAdjust="spacingAndGlyphs" textLength="27" x="241" y="218.1982">label</text></g></svg>