<?xml version="1.0" encoding="UTF-8" standalone="no"?><svg xmlns="http://www.w3.org/2000/svg" xmlns:xlink="http://www.w3.org/1999/xlink" contentScriptType="application/ecmascript" contentStyleType="text/css" height="325px" preserveAspectRatio="none" style="width:364px;height:325px;" version="1.1" viewBox="0 0 364 325"
    width="364px" zoomAndPan="magnify"><defs><filter height="300%" id="fe1tzxk" width="300%" x="-1" y="-1"><feGaussianBlur result="blurOut" stdDeviation="2.0"/><feColorMatrix in="blurOut" result="blurOut2" type="matrix" values="0 0 0 0 0 0 0 0 0 0 0 0 0 0 0 0 0 0 .4 0"/><feOffset dx="4.0" dy="4.0" in="blurOut2" result="blurOut3"/><feBlend in="SourceGraphic" in2="blurOut3" mode="normal"/></filter></defs><g><!--entity User--><ellipse cx="75" cy="18" fill="#FEFECE" filter="url(#fe1tzxk)" rx="8" ry="8" style="stroke: #A80036; stroke-width: 2.0;"/><path d="M75,26 L75,53 M62,34 L88,34 M75,53 L62,68 M75,53 L88,68 " fill="#FEFECE" filter="url(#fe1tzxk)" style="stroke: #A80036; stroke-width: 2.0;"/><text fill="#000000" font-family="sans-serif" font-size="14" lengthAdjust="spacingAndGlyphs" textLength="29" x="60.5" y="89.5332">User</text><ellipse cx="184.2132" cy="50.4517" fill="#FEFECE" filter="url(#fe1tzxk)" rx="24.2132" ry="15.4517" style="stroke: #A80036; stroke-width: 1.5;"/><text fill="#000000" font-family="sans-serif" font-size="14" lengthAdjust="spacingAndGlyphs" textLength="30" x="169.2132" y="55.7564">login</text><ellipse cx="75.2443" cy="196.7489" fill="#FEFECE" filter="url(#fe1tzxk)" rx="69.2443" ry="16.2489" style="stroke: #A80036; stroke-width: 1.5;"/><text fill="#000000" font-family="sans-serif" font-size="14" lengthAdjust="spacingAndGlyphs" textLength="99" x="25.7443" y="202.0536">Use the website</text><!--entity Main Admin--><ellipse cx="280" cy="18" fill="#FEFECE" filter="url(#fe1tzxk)" rx="8" ry="8" style="stroke: #A80036; stroke-width: 2.0;"/><path d="M280,26 L280,53 M267,34 L293,34 M280,53 L267,68 M280,53 L293,68 " fill="#FEFECE" filter="url(#fe1tzxk)" style="stroke: #A80036; stroke-width: 2.0;"/><text fill="#000000" font-family="sans-serif" font-size="14" lengthAdjust="spacingAndGlyphs" textLength="73" x="243.5" y="89.5332">Main Admin</text><ellipse cx="279.9182" cy="300.8836" fill="#FEFECE" filter="url(#fe1tzxk)" rx="77.4182" ry="17.8836" style="stroke: #A80036; stroke-width: 1.5;"/><text fill="#000000" font-family="sans-serif" font-size="14" lengthAdjust="spacingAndGlyphs" textLength="120" x="219.9182" y="306.1883">Use the application</text><path d="M90.3281,50.5 C111.782,50.5 133.236,50.5 154.69,50.5 " fill="none" style="stroke: #A80036; stroke-width: 1.0;"/><polygon fill="#A80036" points="159.85,50.5,150.85,46.5,154.85,50.5,150.85,54.5,159.85,50.5" style="stroke: #A80036; stroke-width: 1.0;"/><path d="M75,93.151 C75,120.105 75,154.005 75,175.22 " fill="none" style="stroke: #A80036; stroke-width: 1.0;"/><polygon fill="#A80036" points="75,180.328,79,171.328,75,175.328,71,171.328,75,180.328" style="stroke: #A80036; stroke-width: 1.0;"/><text fill="#000000" font-family="sans-serif" font-size="13" lengthAdjust="spacingAndGlyphs" textLength="75" x="76" y="137.4951">A small label</text><path d="M280,93.093 C280,146.226 280,236.2653 280,277.7983 " fill="none" style="stroke: #A80036; stroke-width: 1.0;"/><polygon fill="#A80036" points="280,282.8545,284,273.8545,280,277.8545,276,273.8545,280,282.8545" style="stroke: #A80036; stroke-width: 1.0;"/><text fill="#000000" font-family="sans-serif" font-size="13" lengthAdjust="spacingAndGlyphs" textLength="38" x="294.5" y="185.4951">This is</text><text fill="#000000" font-family="sans-serif" font-size="13" lengthAdjust="spacingAndGlyphs" textLength="65" x="281" y="201.8467">yet another</text><text fill="#000000" font-family="sans-serif" font-size="13" lengthAdjust="spacingAndGlyphs" textLength="27" x="300" y="218.1982">label</text></g></svg>