<?xml version="1.0" encoding="UTF-8" standalone="no"?><svg xmlns="http://www.w3.org/2000/svg" xmlns:xlink="http://www.w3.org/1999/xlink" contentScriptType="application/ecmascript" contentStyleType="text/css" height="641px" preserveAspectRatio="none" style="width:475px;height:641px;" version="1.1" viewBox="0 0 475 641"
    width="475px" zoomAndPan="magnify"><defs><filter height="300%" id="fyw4hrr" width="300%" x="-1" y="-1"><feGaussianBlur result="blurOut" stdDeviation="2.0"/><feColorMatrix in="blurOut" result="blurOut2" type="matrix" values="0 0 0 0 0 0 0 0 0 0 0 0 0 0 0 0 0 0 .4 0"/><feOffset dx="4.0" dy="4.0" in="blurOut2" result="blurOut3"/><feBlend in="SourceGraphic" in2="blurOut3" mode="normal"/></filter></defs><g><text fill="#000000" font-family="sans-serif" font-size="18" lengthAdjust="spacingAndGlyphs" textLength="134" x="183.5" y="18.6855">"Remove Friend"</text><!--cluster Friend Array--><rect fill="#FFFFFF" filter="url(#fyw4hrr)" height="83" style="stroke: #000000; stroke-width: 2.0;" width="102" x="364.5" y="551.6406"/><text fill="#000000" font-family="sans-serif" font-size="14" font-weight="bold" lengthAdjust="spacingAndGlyphs" textLength="86" x="372.5" y="568.1738">Friend Array</text><ellipse cx="415.5919" cy="603.0923" fill="#FEFECE" filter="url(#fyw4hrr)" rx="22.0919" ry="15.4517" style="stroke: #A80036; stroke-width: 1.5;"/><text fill="#000000" font-family="sans-serif" font-size="14" lengthAdjust="spacingAndGlyphs" textLength="27" x="402.0919" y="608.397">UC3</text><!--entity Username--><ellipse cx="415.5" cy="429.6406" fill="#FEFECE" filter="url(#fyw4hrr)" rx="8" ry="8" style="stroke: #A80036; stroke-width: 2.0;"/><path d="M415.5,437.6406 L415.5,464.6406 M402.5,445.6406 L428.5,445.6406 M415.5,464.6406 L402.5,479.6406 M415.5,464.6406 L428.5,479.6406 " fill="#FEFECE" filter="url(#fyw4hrr)" style="stroke: #A80036; stroke-width: 2.0;"/><text fill="#000000" font-family="sans-serif" font-size="14" lengthAdjust="spacingAndGlyphs" textLength="64" x="383.5" y="501.1738">Username</text><!--entity User--><ellipse cx="270.5" cy="266.6406" fill="#FEFECE" filter="url(#fyw4hrr)" rx="8" ry="8" style="stroke: #A80036; stroke-width: 2.0;"/><path d="M270.5,274.6406 L270.5,301.6406 M257.5,282.6406 L283.5,282.6406 M270.5,301.6406 L257.5,316.6406 M270.5,301.6406 L283.5,316.6406 " fill="#FEFECE" filter="url(#fyw4hrr)" style="stroke: #A80036; stroke-width: 2.0;"/><text fill="#000000" font-family="sans-serif" font-size="14" lengthAdjust="spacingAndGlyphs" textLength="85" x="228" y="338.1738">Profile Owner</text><ellipse cx="98.3137" cy="461.9493" fill="#FEFECE" filter="url(#fyw4hrr)" rx="92.3137" ry="25.3086" style="stroke: #A80036; stroke-width: 1.5;"/><text fill="#000000" font-family="sans-serif" font-size="14" font-style="italic" lengthAdjust="spacingAndGlyphs" textLength="47" x="74.8137" y="454.5361">«Main»</text><text fill="#000000" font-family="sans-serif" font-size="14" lengthAdjust="spacingAndGlyphs" textLength="141" x="27.8137" y="472.1454">Remove From Friends</text><ellipse cx="270.4935" cy="112.9356" fill="#FEFECE" filter="url(#fyw4hrr)" rx="197.9935" ry="82.295" style="stroke: #A80036; stroke-width: 1.5;"/><text fill="#000000" font-family="sans-serif" font-size="14" lengthAdjust="spacingAndGlyphs" textLength="309" x="115.9935" y="78.6681">First select the friend array of both the username</text><text fill="#000000" font-family="sans-serif" font-size="14" lengthAdjust="spacingAndGlyphs" textLength="285" x="127.9935" y="96.2775">and the profile owner and explode them both.</text><line style="stroke: #A80036; stroke-width: 1.0;" x1="76.2151" x2="464.7719" y1="99.3537" y2="99.3537"/><text fill="#000000" font-family="sans-serif" font-size="14" lengthAdjust="spacingAndGlyphs" textLength="293" x="123.9935" y="117.8869">Get the username and user (profile owner) out</text><line style="stroke: #A80036; stroke-width: 1.0;" x1="75.626" x2="465.3611" y1="124.963" y2="124.963"/><line style="stroke: #A80036; stroke-width: 1.0;" x1="76.3975" x2="464.5896" y1="126.963" y2="126.963"/><text fill="#000000" font-family="sans-serif" font-size="14" lengthAdjust="spacingAndGlyphs" textLength="178" x="181.4935" y="143.4962">Create Query for them both:</text><text fill="#000000" font-family="sans-serif" font-size="14" lengthAdjust="spacingAndGlyphs" textLength="149" x="195.9935" y="182.715">Delete both recursively.</text><line style="stroke: #A80036; stroke-width: 1.0; stroke-dasharray: 1.0,2.0;" x1="108.04" x2="235.4935" y1="159.3771" y2="159.3771"/><text fill="#000000" font-family="sans-serif" font-size="14" lengthAdjust="spacingAndGlyphs" textLength="70" x="235.4935" y="164.6056">Conclusion</text><line style="stroke: #A80036; stroke-width: 1.0; stroke-dasharray: 1.0,2.0;" x1="305.4935" x2="432.9471" y1="159.3771" y2="159.3771"/><!--entity LoggedInUser--><ellipse cx="304.5" cy="429.6406" fill="#FEFECE" filter="url(#fyw4hrr)" rx="8" ry="8" style="stroke: #A80036; stroke-width: 2.0;"/><path d="M304.5,437.6406 L304.5,464.6406 M291.5,445.6406 L317.5,445.6406 M304.5,464.6406 L291.5,479.6406 M304.5,464.6406 L317.5,479.6406 " fill="#FEFECE" filter="url(#fyw4hrr)" style="stroke: #A80036; stroke-width: 2.0;"/><text fill="#000000" font-family="sans-serif" font-size="14" lengthAdjust="spacingAndGlyphs" textLength="88" x="260.5" y="501.1738">LoggedInUser</text><path d="M327.564,354.7296 C333.04,360.3546 338.435,366.0556 343.5,371.6406 C357.165,386.7076 371.371,403.9766 383.517,419.3006 " fill="none" style="stroke: #A80036; stroke-width: 1.0;"/><polygon fill="none" points="322.199,359.2636,313.05,340.1506,332.121,349.3856,322.199,359.2636" style="stroke: #A80036; stroke-width: 1.0;"/><path d="M260.179,462.1406 C238.843,462.1406 217.507,462.1406 196.171,462.1406 " fill="none" style="stroke: #A80036; stroke-width: 1.0;"/><polygon fill="#A80036" points="191.039,462.1406,200.039,466.1406,196.039,462.1406,200.039,458.1406,191.039,462.1406" style="stroke: #A80036; stroke-width: 1.0;"/><path d="M415.5,504.8456 C415.5,530.5376 415.5,562.2981 415.5,582.3938 " fill="none" style="stroke: #A80036; stroke-width: 1.0;"/><polygon fill="#A80036" points="415.5,587.489,419.5,578.489,415.5,582.489,411.5,578.489,415.5,587.489" style="stroke: #A80036; stroke-width: 1.0;"/><path d="M270.5,201.0656 C270.5,220.3056 270.5,239.8426 270.5,256.2976 " fill="none" style="stroke: #A80036; stroke-width: 1.0; stroke-dasharray: 7.0,7.0;"/><polygon fill="#A80036" points="270.5,195.6496,266.5,204.6496,270.5,200.6496,274.5,204.6496,270.5,195.6496" style="stroke: #A80036; stroke-width: 1.0;"/><path d="M227.944,320.6126 C204.747,333.1626 176.559,350.8086 155.5,371.6406 C137.752,389.1976 122.822,413.2456 112.699,431.9936 " fill="none" style="stroke: #A80036; stroke-width: 1.0;"/><polygon fill="#A80036" points="110.23,436.6386,117.9871,430.57,112.5774,432.2239,110.9235,426.8142,110.23,436.6386" style="stroke: #A80036; stroke-width: 1.0;"/><text fill="#000000" font-family="sans-serif" font-size="13" lengthAdjust="spacingAndGlyphs" textLength="178" x="156.5" y="386.1357">Receives a deletion notification</text></g></svg>